<svg width="165" height="44" viewBox="0 0 165 44" fill="none" xmlns="http://www.w3.org/2000/svg">
<path d="M155.433 4.88892C160.322 6.40616 164.03 11.1265 164.03 16.5211C164.03 23.2644 158.636 28.659 151.893 28.659C146.667 28.659 141.778 25.6245 140.092 21.0728L143.801 18.2069C144.644 21.5786 148.352 24.2759 151.893 24.2759C156.107 24.2759 159.647 20.7357 159.647 16.5211C159.647 12.3065 156.107 8.76631 151.724 8.76631L155.433 4.88892Z" fill="url(#paint0_linear_106_2612)"/>
<path d="M136.215 20.9042C134.529 25.6246 129.808 28.8276 124.414 28.8276C117.671 28.8276 112.276 23.433 112.276 16.6897C112.276 9.94639 117.671 4.55176 124.414 4.55176C127.617 4.55176 130.483 5.73183 132.674 7.75482L129.808 10.9579C128.46 9.77781 126.605 8.9349 124.582 8.9349C120.368 8.9349 116.828 12.4751 116.828 16.6897C116.828 20.9042 120.368 24.4445 124.582 24.4445C128.291 24.4445 132 21.2414 132.843 17.8698" fill="url(#paint1_linear_106_2612)"/>
<path d="M134.192 9.10345L130.989 12.4751L138.069 19.8927L157.287 0H150.544L138.069 12.9808L134.192 9.10345Z" fill="url(#paint2_linear_106_2612)"/>
<path d="M18.7126 23.9388V28.4906H0V5.05762H18.3755V9.60934H5.05747V14.3296H16.5211V18.5442H5.05747V23.7703H18.7126V23.9388Z" fill="#3699BA"/>
<path d="M40.1225 21.7472C40.1225 26.9732 35.4022 28.9962 30.1762 28.9962C26.4674 28.9962 23.4329 27.9847 21.7471 26.9732V21.9157C24.1072 23.6016 26.8045 24.7816 30.1762 24.7816C32.8735 24.7816 34.7279 24.1073 34.7279 22.2529C34.7279 17.8698 21.7471 20.0613 21.7471 11.8008C21.7471 6.74333 26.4674 4.55176 31.3563 4.55176C34.5593 4.55176 37.2566 5.56325 38.9425 6.57475V11.6322C37.2566 10.2836 34.5593 8.9349 31.1877 8.9349C28.4904 8.9349 26.9731 9.94639 26.9731 11.4636C26.9731 15.5096 40.1225 12.8123 40.1225 21.7472Z" fill="#3699BA"/>
<path d="M63.7242 13.1496C63.7242 17.3641 60.5211 21.2415 54.2835 21.2415H48.046V28.6591H42.9885V5.05762H54.2835C60.6897 5.05762 63.7242 8.93501 63.7242 13.1496ZM58.3295 13.1496C58.3295 10.7894 56.6437 9.27218 53.7778 9.27218H48.2146V16.8584H53.7778C56.6437 16.8584 58.3295 15.5097 58.3295 13.1496Z" fill="#3699BA"/>
<path d="M85.6399 23.9388V28.4906H66.9272V5.05762H85.3027V9.60934H72.1533V14.3296H83.6169V18.5442H72.1533V23.7703H85.6399V23.9388Z" fill="#3699BA"/>
<path d="M104.015 28.4906L98.1149 20.3986H93.7318V28.4906H88.6743V5.05762H99.9693C106.207 5.05762 109.41 8.93501 109.41 12.6438C109.41 15.6783 107.387 18.7128 103.678 19.8929L110.084 28.4906H104.015ZM93.7318 16.1841H99.4636C102.329 16.1841 103.847 15.004 103.847 12.6438C103.847 10.4523 102.329 9.27218 99.4636 9.27218H93.7318V16.1841Z" fill="#3699BA"/>
<path d="M9.10342 35.908L11.295 40.9654L13.318 35.908H14.3295L11.6322 42.1455H10.6207L7.92334 35.908H9.10342Z" fill="#333333"/>
<path d="M15.1724 39.7854C15.1724 38.4368 16.1839 37.4253 17.5325 37.4253C18.8812 37.4253 19.8927 38.4368 19.8927 39.7854C19.8927 41.1341 18.8812 42.1456 17.5325 42.1456C16.1839 42.1456 15.1724 41.1341 15.1724 39.7854ZM19.0498 39.7854C19.0498 38.9425 18.3754 38.2682 17.5325 38.2682C16.6896 38.2682 16.0153 38.9425 16.0153 39.7854C16.0153 40.6284 16.6896 41.3027 17.5325 41.3027C18.544 41.3027 19.0498 40.6284 19.0498 39.7854Z" fill="#333333"/>
<path d="M24.7814 40.9653V41.8082C24.4443 42.1454 24.1071 42.1454 23.6014 42.1454C22.927 42.1454 21.9155 41.8082 21.9155 40.4596V36.5822L22.927 36.0764V37.4251H24.6128V38.268H22.927V40.4596C22.927 41.1339 23.2642 41.3025 23.7699 41.3025C24.1071 41.3025 24.4443 41.1339 24.7814 40.9653Z" fill="#333333"/>
<path d="M28.3218 39.7854V41.3027H29.5019V42.1456H26.2988V41.3027H27.3103V38.4368H26.2988V37.5939H28.1532V38.4368C28.4904 37.931 29.1647 37.4253 30.0076 37.4253V38.774C29.8391 38.6054 29.5019 38.6054 29.3333 38.6054C28.8276 38.4368 28.3218 38.9425 28.3218 39.7854Z" fill="#333333"/>
<path d="M35.908 39.954H32.3678C32.5364 40.7969 33.0421 41.3027 34.0536 41.3027C34.5594 41.3027 35.0651 41.1341 35.5709 40.7969V41.8084C35.0651 42.1456 34.5594 42.1456 34.0536 42.1456C32.3678 42.1456 31.5249 41.1341 31.5249 39.7854C31.5249 38.4368 32.5364 37.4253 33.8851 37.4253C35.2337 37.4253 35.908 38.2682 35.908 39.7854V39.954V39.954ZM34.8965 39.2797C34.8965 38.7739 34.5594 38.2682 33.7165 38.2682C33.0421 38.2682 32.5364 38.7739 32.3678 39.2797H34.8965Z" fill="#333333"/>
<path d="M43.4942 40.9653V41.8082C43.157 42.1454 42.8199 42.1454 42.4827 42.1454C41.8084 42.1454 40.7969 41.8082 40.7969 40.4596V36.5822L41.8084 36.0764V37.4251H43.4942V38.268H41.8084V40.4596C41.8084 41.1339 42.1455 41.3025 42.6513 41.3025C42.8199 41.3025 43.157 41.1339 43.4942 40.9653Z" fill="#333333"/>
<path d="M49.5631 39.954H46.0228C46.1914 40.7969 46.6972 41.3027 47.7087 41.3027C48.2144 41.3027 48.7202 41.1341 49.2259 40.7969V41.8084C48.8887 41.977 48.2144 42.1456 47.7087 42.1456C46.0228 42.1456 45.1799 41.1341 45.1799 39.7854C45.1799 38.4368 46.1914 37.4253 47.5401 37.4253C48.8887 37.4253 49.5631 38.2682 49.5631 39.7854V39.954ZM48.5516 39.2797C48.5516 38.7739 48.2144 38.2682 47.3715 38.2682C46.6972 38.2682 46.1914 38.7739 46.0228 39.2797H48.5516Z" fill="#333333"/>
<path d="M57.8236 38.9424V42.1454H56.8121V39.4481C56.8121 38.6052 56.3064 38.4366 55.9692 38.4366C55.632 38.4366 54.9577 38.6052 54.9577 39.4481V42.1454H53.9462V39.4481C53.9462 38.6052 53.4405 38.4366 53.1033 38.4366C52.7661 38.4366 52.0918 38.6052 52.0918 39.4481V42.1454H51.0803V37.5937H52.0918V38.268C52.2604 37.9309 52.7661 37.5937 53.2719 37.5937C53.9462 37.5937 54.452 37.9309 54.6206 38.4366C54.9577 37.9309 55.2949 37.5937 55.9692 37.5937C57.1493 37.4251 57.8236 37.9309 57.8236 38.9424Z" fill="#333333"/>
<path d="M64.9041 39.7854C64.9041 41.1341 64.0612 42.1456 62.7126 42.1456C62.0382 42.1456 61.5325 41.8084 61.1953 41.3027V44H60.1838V37.4253H61.0267L61.1953 38.2682C61.5325 37.7625 62.0382 37.4253 62.8812 37.4253C63.8926 37.4253 64.9041 38.4368 64.9041 39.7854ZM63.8927 39.7854C63.8927 38.9425 63.2183 38.2682 62.3754 38.2682C61.5325 38.2682 60.8582 38.9425 60.8582 39.7854C60.8582 40.6284 61.5325 41.3027 62.3754 41.3027C63.2183 41.3027 63.8927 40.6284 63.8927 39.7854Z" fill="#333333"/>
<path d="M70.2987 40.7968C70.2987 41.8083 69.4557 42.3141 68.2757 42.3141C67.6013 42.3141 67.0956 42.1455 66.5898 41.9769V40.9654C67.0956 41.3026 67.6013 41.4711 68.2757 41.4711C68.95 41.4711 69.2872 41.3026 69.2872 40.9654C69.2872 40.1225 66.5898 40.6282 66.5898 38.9424C66.5898 37.9309 67.4328 37.5938 68.6128 37.5938C69.2872 37.5938 69.7929 37.7623 70.1301 37.9309V38.7738C69.6243 38.4367 69.2872 38.2681 68.6128 38.2681C67.9385 38.2681 67.6013 38.4367 67.6013 38.7738C67.6013 39.6167 70.2987 38.9424 70.2987 40.7968Z" fill="#333333"/>
<path d="M73.3332 41.8082C73.3332 42.6512 72.6588 43.3255 71.8159 43.3255V42.8197C72.1531 42.8197 72.4902 42.4826 72.4902 42.314C72.1531 42.314 71.9845 41.9768 71.9845 41.6397C71.9845 41.3025 72.3217 40.9653 72.6588 40.9653C72.996 40.9653 73.3332 41.1339 73.3332 41.8082Z" fill="#333333"/>
<path d="M82.6054 39.1109V42.1454H81.5939V39.6167C81.5939 38.7738 81.0882 38.4366 80.5824 38.4366C80.0767 38.4366 79.4024 38.7738 79.4024 39.6167V42.1454H78.3909V37.5937H79.4024V38.268C79.5709 37.9309 80.0767 37.5937 80.9196 37.5937C81.7625 37.4251 82.6054 38.0994 82.6054 39.1109Z" fill="#333333"/>
<path d="M84.4597 39.7854C84.4597 38.4368 85.4712 37.4253 86.8199 37.4253C88.1685 37.4253 89.18 38.4368 89.18 39.7854C89.18 41.1341 88.1685 42.1456 86.8199 42.1456C85.4712 42.1456 84.4597 41.1341 84.4597 39.7854ZM88.3371 39.7854C88.3371 38.9425 87.6628 38.2682 86.8199 38.2682C85.977 38.2682 85.3026 38.9425 85.3026 39.7854C85.3026 40.6284 85.977 41.3027 86.8199 41.3027C87.8314 41.3027 88.3371 40.6284 88.3371 39.7854Z" fill="#333333"/>
<path d="M94.0688 40.9653V41.8082C93.7316 42.1454 93.3945 42.1454 92.8887 42.1454C92.2144 42.1454 91.2029 41.8082 91.2029 40.4596V36.5822L92.2144 36.0764V37.4251H93.9002V38.268H92.2144V40.4596C92.2144 41.1339 92.5515 41.3025 93.0573 41.3025C93.3945 41.3025 93.7316 41.1339 94.0688 40.9653Z" fill="#333333"/>
<path d="M97.6092 39.7854V41.3027H98.7892V42.1456H95.5862V41.3027H96.5977V38.4368H95.5862V37.5939H97.4406V38.4368C97.7777 37.931 98.4521 37.4253 99.295 37.4253V38.774C99.1264 38.6054 98.7892 38.6054 98.6207 38.6054C98.1149 38.4368 97.6092 38.9425 97.6092 39.7854Z" fill="#333333"/>
<path d="M105.195 39.954H101.655C101.824 40.7969 102.329 41.3027 103.341 41.3027C103.847 41.3027 104.352 41.1341 104.858 40.7969V41.8084C104.521 41.977 103.847 42.1456 103.341 42.1456C101.655 42.1456 100.812 41.1341 100.812 39.7854C100.812 38.4368 101.824 37.4253 103.172 37.4253C104.521 37.4253 105.195 38.2682 105.195 39.7854V39.954ZM104.184 39.2797C104.184 38.7739 103.847 38.2682 103.004 38.2682C102.329 38.2682 101.824 38.7739 101.655 39.2797H104.184Z" fill="#333333"/>
<path d="M114.973 39.7854C114.973 41.1341 114.13 42.1456 112.781 42.1456C112.107 42.1456 111.601 41.8084 111.264 41.3027V44H110.253V37.4253H111.096L111.264 38.2682C111.601 37.7625 112.107 37.4253 112.95 37.4253C113.961 37.4253 114.973 38.4368 114.973 39.7854ZM113.961 39.7854C113.961 38.9425 113.287 38.2682 112.444 38.2682C111.601 38.2682 110.927 38.9425 110.927 39.7854C110.927 40.6284 111.601 41.3027 112.444 41.3027C113.287 41.3027 113.961 40.6284 113.961 39.7854Z" fill="#333333"/>
<path d="M118.682 39.7854V41.3027H119.862V42.1456H116.659V41.3027H117.67V38.4368H116.659V37.5939H118.513V38.4368C118.851 37.931 119.525 37.4253 120.368 37.4253V38.774C120.199 38.6054 119.862 38.6054 119.693 38.6054C119.019 38.4368 118.682 38.9425 118.682 39.7854Z" fill="#333333"/>
<path d="M124.751 41.3029V42.1458H121.885V41.3029H122.897V38.437H121.885V37.594H123.739V41.3029H124.751ZM122.559 35.9082C122.559 35.5711 122.896 35.2339 123.234 35.2339C123.571 35.2339 123.908 35.5711 123.908 35.9082C123.908 36.2454 123.571 36.5825 123.234 36.5825C122.896 36.5825 122.559 36.2454 122.559 35.9082Z" fill="#333333"/>
<path d="M126.1 39.7854C126.1 38.4368 127.111 37.4253 128.46 37.4253C129.808 37.4253 130.82 38.4368 130.82 39.7854C130.82 41.1341 129.808 42.1456 128.46 42.1456C127.111 42.1456 126.1 41.1341 126.1 39.7854ZM129.977 39.7854C129.977 38.9425 129.303 38.2682 128.46 38.2682C127.617 38.2682 126.943 38.9425 126.943 39.7854C126.943 40.6284 127.617 41.3027 128.46 41.3027C129.303 41.3027 129.977 40.6284 129.977 39.7854Z" fill="#333333"/>
<path d="M134.529 39.7854V41.3027H135.709V42.1456H132.506V41.3027H133.517V38.4368H132.506V37.5939H134.36V38.4368C134.697 37.931 135.372 37.4253 136.214 37.4253V38.774C136.046 38.6054 135.709 38.6054 135.54 38.6054C135.034 38.4368 134.529 38.9425 134.529 39.7854Z" fill="#333333"/>
<path d="M140.598 41.3029V42.1458H137.732V41.3029H138.743V38.437H137.732V37.594H139.586V41.3029H140.598ZM138.575 35.9082C138.575 35.5711 138.912 35.2339 139.249 35.2339C139.586 35.2339 139.923 35.5711 139.923 35.9082C139.923 36.2454 139.586 36.5825 139.249 36.5825C138.912 36.5825 138.575 36.2454 138.575 35.9082Z" fill="#333333"/>
<path d="M144.981 40.9653V41.8082C144.644 42.1454 144.306 42.1454 143.969 42.1454C143.295 42.1454 142.283 41.8082 142.283 40.4596V36.5822L143.295 36.0764V37.4251H144.981V38.268H143.295V40.4596C143.295 41.1339 143.632 41.3025 144.138 41.3025C144.306 41.3025 144.812 41.1339 144.981 40.9653Z" fill="#333333"/>
<path d="M151.05 39.954H147.509C147.678 40.7969 148.184 41.3026 149.195 41.3026C149.701 41.3026 150.207 41.134 150.712 40.7969V41.8084C150.207 42.1455 149.701 42.1455 149.195 42.1455C147.509 42.1455 146.667 41.134 146.667 39.7854C146.667 38.4367 147.678 37.4252 149.027 37.4252C150.375 37.4252 151.05 38.2681 151.05 39.7854V39.954V39.954ZM150.038 39.2796C150.038 38.7739 149.701 38.2681 148.858 38.2681C148.184 38.2681 147.678 38.7739 147.509 39.2796H150.038ZM149.195 36.5823H148.521L149.364 34.8965H150.712L149.195 36.5823Z" fill="#333333"/>
<path d="M152.736 41.6397C152.736 41.3025 153.073 40.9653 153.41 40.9653C153.747 40.9653 154.084 41.3025 154.084 41.6397C154.084 41.9768 153.747 42.314 153.41 42.314C153.073 42.1454 152.736 41.9768 152.736 41.6397Z" fill="#333333"/>
<defs>
<linearGradient id="paint0_linear_106_2612" x1="113.084" y1="16.8395" x2="163.439" y2="16.8395" gradientUnits="userSpaceOnUse">
<stop stop-color="#3699BA"/>
<stop offset="1" stop-color="#58579E"/>
</linearGradient>
<linearGradient id="paint1_linear_106_2612" x1="113.084" y1="16.5659" x2="163.44" y2="16.5659" gradientUnits="userSpaceOnUse">
<stop stop-color="#3699BA"/>
<stop offset="1" stop-color="#58579E"/>
</linearGradient>
<linearGradient id="paint2_linear_106_2612" x1="113.084" y1="9.97687" x2="163.44" y2="9.97687" gradientUnits="userSpaceOnUse">
<stop stop-color="#3699BA"/>
<stop offset="1" stop-color="#58579E"/>
</linearGradient>
</defs>
</svg>
